<svg width="70" height="70" viewBox="0 0 70 70" fill="none" xmlns="http://www.w3.org/2000/svg">
<path d="M66.1312 50.9632C68.6698 46.0247 69.996 40.5528 70.0002 35C70.0002 15.7023 54.298 0 35.0002 0C15.7025 0 0.000244141 15.7023 0.000244141 35C0.000244141 54.2977 15.7025 70 35.0002 70C40.543 70 46.0348 68.6668 50.9666 66.1341L66.0484 69.9045C66.5811 70.0387 67.1395 70.0321 67.6689 69.8854C68.1982 69.7387 68.6804 69.4569 69.068 69.0677C69.4567 68.6791 69.7381 68.1964 69.8847 67.6666C70.0314 67.1369 70.0383 66.5782 69.9048 66.045L66.1312 50.9632ZM59.6625 51.3132L62.4434 62.4432L51.3134 59.6591C50.5266 59.4648 49.6954 59.5763 48.9875 59.9709C44.7159 62.3704 39.8996 63.6326 35.0002 63.6364C19.2089 63.6364 6.36388 50.7882 6.36388 35C6.36388 19.2118 19.2089 6.36364 35.0002 6.36364C50.7916 6.36364 63.6366 19.2118 63.6366 35C63.6323 39.8979 62.3713 44.7128 59.9743 48.9841C59.5755 49.6917 59.4638 50.5256 59.6625 51.3132Z" fill="white"/>
<path d="M67.0002 34.5C67.0002 51.3446 53.1211 65 36.0002 65C18.8794 65 5.00024 51.3446 5.00024 34.5C5.00024 17.6553 18.8794 3.99996 36.0002 3.99996C53.1211 3.99996 67.0002 17.6553 67.0002 34.5Z" fill="white"/>
<path d="M62.2503 51.9999L67.7503 69.9999L50.0003 59.9999L62.2503 51.9999Z" fill="white"/>
</svg>
