<svg width="41" height="41" viewBox="0 0 41 41" fill="none" xmlns="http://www.w3.org/2000/svg">
<path d="M2.9894 19.0669C2.98269 21.7066 3.59961 24.3106 4.7899 26.6668C6.20122 29.4902 8.37074 31.8649 11.0555 33.5249C13.7402 35.185 16.834 36.0647 19.9905 36.0658C22.6303 36.0725 25.2343 35.4556 27.5904 34.2653L38.9907 38.0645L35.1899 26.6648C36.3799 24.3085 36.9965 21.7044 36.9894 19.0646C36.988 15.9082 36.1078 12.8144 34.4474 10.1299C32.787 7.44542 30.412 5.27621 27.5884 3.86526C25.2321 2.67528 22.628 2.05871 19.9883 2.06576L18.9883 2.06583C14.8196 2.29609 10.8823 4.05589 7.93033 7.00828C4.97833 9.96067 3.21904 13.8982 2.98934 18.0669L2.9894 19.0669Z" stroke="#1E1E1E" stroke-width="4" stroke-linecap="round" stroke-linejoin="round"/>
</svg>
