<svg width="46" height="41" viewBox="0 0 46 41" fill="none" xmlns="http://www.w3.org/2000/svg">
<path d="M40.6703 5.28186C39.6488 4.2598 38.436 3.449 37.1011 2.89579C35.7662 2.34258 34.3354 2.05779 32.8905 2.05769C31.4455 2.0576 30.0147 2.3422 28.6797 2.89524C27.3448 3.44827 26.1318 4.25891 25.1103 5.28083L22.9901 7.40069L20.8703 5.28055C18.807 3.21703 16.0085 2.05765 13.0905 2.05746C10.1724 2.05727 7.37378 3.21628 5.31026 5.27953C3.24674 7.34278 2.08736 10.1412 2.08717 13.0593C2.08697 15.9774 3.24599 18.776 5.30923 20.8395L22.9881 38.5207L40.6692 20.8419C41.6913 19.8204 42.5021 18.6076 43.0553 17.2727C43.6085 15.9378 43.8933 14.507 43.8934 13.0621C43.8935 11.6171 43.6089 10.1863 43.0559 8.85131C42.5028 7.51635 41.6922 6.30344 40.6703 5.28186Z" stroke="#1E1E1E" stroke-width="4" stroke-linecap="round" stroke-linejoin="round"/>
</svg>
