<svg width="78" height="78" viewBox="0 0 78 78" fill="none" xmlns="http://www.w3.org/2000/svg">
<path d="M38.9612 0C17.4332 0 0.000244141 17.472 0.000244141 39C0.000244141 60.528 17.4332 78 38.9612 78C60.5282 78 78.0002 60.528 78.0002 39C78.0002 17.472 60.5282 0 38.9612 0ZM65.9882 23.4H54.4832C53.2352 18.525 51.4412 13.845 49.1012 9.516C56.2772 11.973 62.2442 16.965 65.9882 23.4ZM39.0002 7.956C42.2372 12.636 44.7722 17.823 46.4492 23.4H31.5512C33.2282 17.823 35.7632 12.636 39.0002 7.956ZM8.81425 46.8C8.19025 44.304 7.80024 41.691 7.80024 39C7.80024 36.309 8.19025 33.696 8.81425 31.2H21.9962C21.6842 33.774 21.4502 36.348 21.4502 39C21.4502 41.652 21.6842 44.226 21.9962 46.8H8.81425ZM12.0122 54.6H23.5172C24.7652 59.475 26.5592 64.155 28.8992 68.484C21.7232 66.027 15.7562 61.074 12.0122 54.6ZM23.5172 23.4H12.0122C15.7562 16.926 21.7232 11.973 28.8992 9.516C26.5592 13.845 24.7652 18.525 23.5172 23.4ZM39.0002 70.044C35.7632 65.364 33.2282 60.177 31.5512 54.6H46.4492C44.7722 60.177 42.2372 65.364 39.0002 70.044ZM48.1262 46.8H29.8742C29.5232 44.226 29.2502 41.652 29.2502 39C29.2502 36.348 29.5232 33.735 29.8742 31.2H48.1262C48.4772 33.735 48.7502 36.348 48.7502 39C48.7502 41.652 48.4772 44.226 48.1262 46.8ZM49.1012 68.484C51.4412 64.155 53.2352 59.475 54.4832 54.6H65.9882C62.2442 61.035 56.2772 66.027 49.1012 68.484ZM56.0042 46.8C56.3162 44.226 56.5502 41.652 56.5502 39C56.5502 36.348 56.3162 33.774 56.0042 31.2H69.1862C69.8102 33.696 70.2002 36.309 70.2002 39C70.2002 41.691 69.8102 44.304 69.1862 46.8H56.0042Z" fill="white"/>
</svg>
