<svg width="57" height="56" viewBox="0 0 57 56" fill="none" xmlns="http://www.w3.org/2000/svg">
<path d="M53.8495 40.7702C55.9166 36.8195 56.9966 32.442 57 27.9998C57 12.5617 44.2139 0 28.5 0C12.7861 0 0 12.5617 0 27.9998C0 43.4379 12.7861 55.9996 28.5 55.9996C33.0134 55.9996 37.4853 54.933 41.5012 52.9069L53.7821 55.9232C54.2158 56.0305 54.6705 56.0253 55.1016 55.9079C55.5326 55.7906 55.9252 55.5651 56.2409 55.2538C56.5574 54.9429 56.7865 54.5567 56.9059 54.1329C57.0253 53.7091 57.031 53.2622 56.9223 52.8356L53.8495 40.7702ZM48.5821 41.0502L50.8466 49.9542L41.7836 47.7269C41.1429 47.5715 40.466 47.6606 39.8896 47.9764C36.4114 49.896 32.4895 50.9057 28.5 50.9087C15.6413 50.9087 5.18182 40.6302 5.18182 27.9998C5.18182 15.3693 15.6413 5.09087 28.5 5.09087C41.3587 5.09087 51.8182 15.3693 51.8182 27.9998C51.8146 31.9181 50.7879 35.77 48.836 39.187C48.5112 39.7531 48.4203 40.4201 48.5821 41.0502Z" fill="black"/>
</svg>
