<svg width="64" height="64" viewBox="0 0 64 64" fill="none" xmlns="http://www.w3.org/2000/svg">
<g clip-path="url(#clip0_367_639)">
<path d="M31.628 39.9995C35.9947 39.9998 39.5349 36.4185 39.5351 32.0005C39.5354 27.5825 35.9958 24.0008 31.6291 24.0005C27.2624 24.0002 23.7223 27.5815 23.722 31.9995C23.7217 36.4175 27.2613 39.9992 31.628 39.9995Z" stroke="#1E1E1E" stroke-width="5.5" stroke-linecap="round" stroke-linejoin="round"/>
<path d="M51.131 40.0008C50.7801 40.805 50.6754 41.6972 50.8303 42.5622C50.9853 43.4272 51.3928 44.2254 52.0004 44.8539L52.1585 45.0139C52.6485 45.5092 53.0373 46.0974 53.3025 46.7449C53.5677 47.3923 53.7042 48.0863 53.7042 48.7871C53.7041 49.488 53.5675 50.1819 53.3022 50.8293C53.0369 51.4767 52.6481 52.0649 52.158 52.5601C51.6684 53.0559 51.0871 53.4493 50.4471 53.7176C49.8072 53.9859 49.1213 54.124 48.4286 54.124C47.7359 54.1239 47.05 53.9857 46.4101 53.7173C45.7703 53.4489 45.1889 53.0555 44.6994 52.5596L44.5413 52.3996C43.9202 51.7849 43.1313 51.3724 42.2764 51.2155C41.4214 51.0586 40.5396 51.1645 39.7447 51.5194C38.9652 51.8573 38.3003 52.4185 37.832 53.1339C37.3637 53.8493 37.1123 54.6876 37.1089 55.5456L37.1089 55.9989C37.1088 57.4133 36.5534 58.7698 35.5648 59.7698C34.5762 60.7699 33.2354 61.3317 31.8375 61.3316C30.4395 61.3315 29.0988 60.7695 28.1104 59.7693C27.1219 58.7691 26.5667 57.4126 26.5668 55.9982L26.5668 55.7582C26.5464 54.8756 26.2641 54.0196 25.7565 53.3015C25.249 52.5834 24.5396 52.0364 23.7207 51.7316C22.9258 51.3766 22.044 51.2707 21.189 51.4275C20.3341 51.5843 19.5451 51.9966 18.9239 52.6113L18.7658 52.7712C18.2762 53.2671 17.6949 53.6604 17.0549 53.9287C16.415 54.197 15.7291 54.3351 15.0364 54.3351C14.3437 54.3351 13.6578 54.1969 13.0179 53.9284C12.3781 53.66 11.7967 53.2666 11.3072 52.7708C10.8172 52.2754 10.4284 51.6872 10.1632 51.0398C9.898 50.3924 9.76151 49.6984 9.76156 48.9975C9.76161 48.2967 9.89819 47.6027 10.1635 46.9553C10.4288 46.3079 10.8176 45.7198 11.3077 45.2245L11.4659 45.0646C12.0735 44.4362 12.4811 43.638 12.6362 42.773C12.7913 41.908 12.6867 41.0159 12.3359 40.2116C12.0019 39.4229 11.4472 38.7502 10.7401 38.2764C10.0331 37.8026 9.20453 37.5483 8.35645 37.5448L7.90841 37.5448C6.51044 37.5447 5.16976 36.9827 4.18131 35.9825C3.19286 34.9823 2.63761 33.6258 2.6377 32.2114C2.63779 30.797 3.19323 29.4406 4.18181 28.4405C5.17039 27.4404 6.51114 26.8786 7.90911 26.8787L8.14631 26.8788C9.01866 26.8582 9.86471 26.5725 10.5745 26.059C11.2842 25.5454 11.8249 24.8277 12.1262 23.9992C12.477 23.195 12.5817 22.3028 12.4268 21.4378C12.2718 20.5728 11.8643 19.7746 11.2567 19.1461L11.0986 18.9861C10.6086 18.4908 10.2198 17.9026 9.95461 17.2551C9.68939 16.6077 9.5529 15.9137 9.55294 15.2129C9.55299 14.512 9.68957 13.8181 9.95488 13.1707C10.2202 12.5233 10.609 11.9351 11.0991 11.4399C11.5887 10.9441 12.1701 10.5507 12.81 10.2824C13.4499 10.0141 14.1358 9.87597 14.8285 9.87601C15.5212 9.87606 16.2071 10.0142 16.847 10.2827C17.4869 10.5511 18.0682 10.9445 18.5577 11.4404L18.7158 11.6004C19.3369 12.2151 20.1258 12.6276 20.9807 12.7845C21.8357 12.9414 22.7175 12.8355 23.5124 12.4806L23.7232 12.4806C24.5028 12.1427 25.1676 11.5815 25.6359 10.8661C26.1043 10.1507 26.3556 9.31243 26.359 8.45439L26.3591 8.00108C26.3592 6.58668 26.9146 5.23024 27.9032 4.23017C28.8918 3.2301 30.2325 2.66832 31.6305 2.66841C33.0285 2.66851 34.3691 3.23047 35.3576 4.23066C36.346 5.23086 36.9013 6.58737 36.9012 8.00178L36.9012 8.24176C36.9045 9.09981 37.1557 9.93815 37.624 10.6536C38.0922 11.369 38.757 11.9303 39.5364 12.2684C40.3313 12.6234 41.2131 12.7293 42.0681 12.5725C42.9231 12.4157 43.712 12.0034 44.3332 11.3887L44.4913 11.2288C44.9809 10.7329 45.5623 10.3396 46.2022 10.0713C46.8421 9.80294 47.528 9.66485 48.2207 9.6649C48.9134 9.66494 49.5993 9.80313 50.2392 10.0715C50.879 10.34 51.4604 10.7334 51.9499 11.2292C52.4399 11.7246 52.8287 12.3128 53.0939 12.9602C53.3591 13.6076 53.4956 14.3016 53.4956 15.0025C53.4955 15.7033 53.3589 16.3973 53.0936 17.0447C52.8283 17.6921 52.4395 18.2802 51.9494 18.7755L51.7912 18.9354C51.1836 19.5638 50.776 20.362 50.6209 21.227C50.4658 22.092 50.5704 22.9841 50.9212 23.7884L50.9212 24.0017C51.2552 24.7904 51.8099 25.4631 52.5169 25.9369C53.224 26.4107 54.0526 26.665 54.9006 26.6685L55.3487 26.6685C56.7467 26.6686 58.0873 27.2306 59.0758 28.2308C60.0642 29.231 60.6195 30.5875 60.6194 32.0019C60.6193 33.4163 60.0639 34.7727 59.0753 35.7728C58.0867 36.7729 56.746 37.3347 55.348 37.3346L55.1108 37.3346C54.2627 37.3379 53.4341 37.5921 52.727 38.0658C52.0199 38.5396 51.4651 39.2122 51.131 40.0008Z" stroke="#1E1E1E" stroke-width="5.5" stroke-linecap="round" stroke-linejoin="round"/>
</g>
<defs>
<clipPath id="clip0_367_639">
<rect width="63.2527" height="63.9962" fill="white" transform="translate(0.00439453)"/>
</clipPath>
</defs>
</svg>
