<svg width="78" height="75" viewBox="0 0 78 75" fill="none" xmlns="http://www.w3.org/2000/svg">
<path d="M68.7725 41.1567C68.9328 39.9567 69.053 38.738 69.053 37.5005C69.053 36.263 68.9328 35.0442 68.7725 33.8442L77.2502 27.638C78.0118 27.0755 78.2322 26.063 77.7312 25.238L69.7144 12.2442C69.2134 11.438 68.1712 11.1005 67.2693 11.438L57.2885 15.2067C55.2241 13.7255 52.9594 12.4692 50.5143 11.513L49.0112 1.57549C48.8308 0.694239 48.0091 0.000488281 47.007 0.000488281H30.9735C29.9714 0.000488281 29.1497 0.694239 28.9893 1.57549L27.4862 11.513C25.0634 12.4584 22.7854 13.7005 20.712 15.2067L10.7312 11.438C10.2876 11.2796 9.79829 11.2738 9.3505 11.4214C8.90271 11.5691 8.52549 11.8607 8.28605 12.2442L0.269296 25.238C-0.231751 26.0442 -0.0112897 27.0567 0.750302 27.638L9.20798 33.8442C9.04764 35.0442 8.92739 36.263 8.92739 37.5005C8.92739 38.738 9.04764 39.9567 9.20798 41.1567L0.750302 47.363C-0.0112897 47.9255 -0.231751 48.938 0.269296 49.763L8.28605 62.7567C8.7871 63.563 9.82928 63.9005 10.7312 63.563L20.712 59.7942C22.7763 61.2755 25.0411 62.5317 27.4862 63.488L28.9893 73.4255C29.1497 74.3067 29.9714 75.0005 30.9735 75.0005H47.007C48.0091 75.0005 48.8308 74.3067 48.9911 73.4255L50.4943 63.488C52.9171 62.5426 55.195 61.3005 57.2684 59.7942L67.2493 63.563C67.6929 63.7213 68.1822 63.7272 68.6299 63.5795C69.0777 63.4319 69.455 63.1403 69.6944 62.7567L77.7111 49.763C78.2122 48.9567 77.9917 47.9442 77.2301 47.363L68.7725 41.1567ZM38.9902 50.6255C31.234 50.6255 24.9609 44.7567 24.9609 37.5005C24.9609 30.2442 31.234 24.3755 38.9902 24.3755C46.7464 24.3755 53.0195 30.2442 53.0195 37.5005C53.0195 44.7567 46.7464 50.6255 38.9902 50.6255Z" fill="white"/>
</svg>
