<svg width="32" height="32" viewBox="0 0 32 32" fill="none" xmlns="http://www.w3.org/2000/svg">
<path d="M15.862 24.6034H15.8622C16.4813 24.6085 17.0829 24.8534 17.4068 24.9917C17.8229 25.1693 18.2871 25.4045 18.7536 25.6545C19.3958 25.9986 20.1393 26.4242 20.8782 26.847C21.2019 27.0323 21.5246 27.217 21.8376 27.3941C22.5691 27.8081 23.2565 28.1865 23.8598 28.4896C23.7743 27.7917 23.6431 26.9815 23.4923 26.1163C23.4295 25.7556 23.3629 25.3834 23.2962 25.0105C23.1441 24.1605 22.9913 23.3067 22.8808 22.5763C22.8006 22.0456 22.7337 21.5244 22.7043 21.0695C22.6811 20.7103 22.6517 20.0712 22.8399 19.4958L22.8399 19.4957C23.029 18.9176 23.4318 18.4207 23.6632 18.146C23.9559 17.7986 24.3174 17.4216 24.6943 17.0462C25.2131 16.5294 25.8388 15.9395 26.461 15.3529C26.7336 15.0959 27.0056 14.8395 27.2676 14.5902C27.913 13.976 28.5069 13.3965 28.9913 12.883C28.3154 12.75 27.5171 12.6265 26.658 12.5045C26.3038 12.4543 25.9373 12.404 25.5696 12.3536C24.7298 12.2385 23.8844 12.1226 23.1681 12.0038C22.6478 11.9176 22.1376 11.8208 21.7 11.7075C21.3567 11.6186 20.7348 11.4456 20.2425 11.0743L20.2424 11.0742C19.7539 10.7057 19.414 10.1569 19.2319 9.85129C18.9993 9.46073 18.7602 8.9941 18.5271 8.51264C18.2062 7.84983 17.8504 7.06102 17.4963 6.27598C17.341 5.93172 17.1861 5.58819 17.0345 5.25633C16.6823 4.48502 16.3444 3.76718 16.0306 3.15913C15.7074 3.7617 15.3584 4.47353 14.9942 5.23857C14.8374 5.5679 14.677 5.90884 14.5163 6.25051C14.1499 7.0296 13.7816 7.81244 13.4503 8.46987C13.2096 8.94744 12.9631 9.41011 12.7243 9.79685C12.5374 10.0994 12.1887 10.6428 11.6941 11.0034L15.862 24.6034ZM15.862 24.6034C15.2428 24.5983 14.6373 24.8333 14.3111 24.9663M15.862 24.6034L14.3111 24.9663M14.3111 24.9663C13.8923 25.137 13.4243 25.3646 12.954 25.6068M14.3111 24.9663L12.954 25.6068M12.954 25.6068C12.3064 25.9404 11.5562 26.3536 10.8107 26.7643M12.954 25.6068L10.8107 26.7643M10.8107 26.7643C10.4842 26.9441 10.1586 27.1235 9.84283 27.2954M10.8107 26.7643L9.84283 27.2954M9.84283 27.2954C9.10437 27.6977 8.41066 28.0648 7.80238 28.358M9.84283 27.2954L7.80238 28.358M7.80238 28.358C7.89891 27.6612 8.04306 26.8526 8.20759 25.9891C8.27612 25.6295 8.3486 25.2584 8.42122 24.8866C8.58674 24.0392 8.753 23.188 8.87497 22.4596C8.96359 21.9303 9.03873 21.4102 9.07527 20.9559C9.10413 20.5971 9.14364 19.9586 8.96464 19.3804C8.78481 18.7995 8.39011 18.2961 8.16308 18.0177C7.87605 17.6656 7.52055 17.2828 7.14962 16.9012C6.63911 16.3759 6.02284 15.7758 5.40999 15.1791C5.14145 14.9176 4.87357 14.6568 4.61554 14.4031C3.98004 13.7785 3.3953 13.1892 2.91907 12.6679C3.59662 12.5462 4.39599 12.4359 5.25619 12.3282C5.61105 12.2838 5.97829 12.2396 6.34663 12.1953C7.18817 12.094 8.03539 11.992 8.75348 11.8851C9.27514 11.8074 9.7868 11.719 10.2262 11.6129C10.5708 11.5297 11.1956 11.3669 11.694 11.0035L7.80238 28.358ZM16.9473 1.7087C16.9473 1.70876 16.946 1.71011 16.9432 1.71258C16.9459 1.70989 16.9473 1.70865 16.9473 1.7087ZM29.9966 11.6522C29.9979 11.6492 29.9987 11.6477 29.9987 11.6477C29.9988 11.6477 29.9981 11.6492 29.9966 11.6522ZM30.5665 13.3261C30.5643 13.3266 30.5438 13.3165 30.5112 13.2944C30.5523 13.3146 30.5686 13.3257 30.5665 13.3261ZM23.9443 30.1588C23.9443 30.1587 23.9446 30.157 23.9452 30.154C23.9446 30.1573 23.9443 30.1589 23.9443 30.1588ZM25.3947 29.1285C25.3986 29.129 25.4006 29.1293 25.4006 29.1293C25.4005 29.1294 25.3986 29.1291 25.3947 29.1285ZM1.39152 13.0543C1.35852 13.0759 1.3378 13.0857 1.33569 13.0852C1.33358 13.0846 1.35008 13.0738 1.39152 13.0543ZM1.93089 11.4155C1.93094 11.4155 1.93166 11.417 1.93292 11.42C1.93148 11.417 1.93085 11.4155 1.93089 11.4155ZM6.2533 28.9716C6.25334 28.9716 6.2553 28.9713 6.25911 28.9709C6.25516 28.9715 6.25326 28.9717 6.2533 28.9716ZM7.69095 30.0188C7.69159 30.0219 7.69186 30.0236 7.69183 30.0236C7.69181 30.0237 7.69149 30.0221 7.69095 30.0188ZM15.1412 1.69811C15.1385 1.6956 15.1372 1.69424 15.1372 1.69418C15.1372 1.69413 15.1385 1.69538 15.1412 1.69811Z" stroke="#B3B3B3" stroke-width="4"/>
</svg>
