<svg width="32" height="32" viewBox="0 0 32 32" fill="none" xmlns="http://www.w3.org/2000/svg">
<path d="M31.8954 12.4721C32.0549 11.6567 31.417 10.6782 30.6196 10.6782L21.5294 9.37346L17.383 0.892965C17.2235 0.566792 17.064 0.403705 16.7451 0.240619C15.9477 -0.24864 14.9908 0.0775327 14.5124 0.892965L10.5255 9.37346L1.43529 10.6782C0.956862 10.6782 0.637908 10.8412 0.478431 11.1674C-0.159477 11.8198 -0.159477 12.7983 0.478431 13.4506L7.01699 19.9741L5.42222 29.27C5.42222 29.5962 5.42222 29.9223 5.58169 30.2485C6.06013 31.064 7.01699 31.3901 7.81437 30.9009L15.9477 26.4975L24.081 30.9009C24.2405 31.064 24.5595 31.064 24.8784 31.064C25.0379 31.064 25.0379 31.064 25.1974 31.064C25.9947 30.9009 26.6327 30.0854 26.4732 29.1069L24.8784 19.811L31.417 13.2875C31.7359 13.1244 31.8954 12.7983 31.8954 12.4721ZM22.0078 18.1801C21.6889 18.5063 21.5294 19.1586 21.5294 19.6479L22.6457 26.4975L16.5856 23.2358C16.4261 23.0727 16.1072 23.0727 15.7882 23.0727V5.2963L18.8183 11.4936C18.9778 11.9828 19.4562 12.309 20.0941 12.309L26.7921 13.2875L22.0078 18.1801Z" fill="#FECC3B"/>
</svg>
