<svg width="32" height="32" viewBox="0 0 32 32" fill="none" xmlns="http://www.w3.org/2000/svg">
<path d="M25.6642 31.0362C24.5285 31.8643 17.2413 26.6149 15.8456 26.6033C14.4499 26.5919 7.0807 31.7206 5.95824 30.8738C4.83578 30.0271 7.47462 21.3303 7.05409 19.9718C6.63356 18.6134 -0.422051 13.0438 0.0199177 11.6924C0.461983 10.3411 9.38008 10.2155 10.5158 9.38741C11.6515 8.55939 14.6602 -0.0114267 16.056 1.1438e-05C17.4516 0.011549 20.3243 8.63081 21.4468 9.47753C22.5693 10.3241 31.4843 10.5967 31.905 11.9551C32.3255 13.3136 25.1829 18.7662 24.7408 20.1175C24.2988 21.4689 26.7999 30.208 25.6642 31.0362Z" fill="#FECC3B"/>
</svg>
