<svg width="64" height="59" viewBox="0 0 64 59" fill="none" xmlns="http://www.w3.org/2000/svg">
<path d="M5.48047 23.6265V50.1463C5.48047 53.4011 8.11898 56.0395 11.3738 56.0395H52.6268C55.8816 56.0395 58.5201 53.4011 58.5201 50.1463V23.6265" stroke="black" stroke-width="4.41997"/>
<path d="M40.3478 56.0395V38.3596C40.3478 35.1047 37.7094 32.4663 34.4545 32.4663H28.5612C25.3065 32.4663 22.668 35.1047 22.668 38.3596V56.0395" stroke="black" stroke-width="4.41997" stroke-miterlimit="16"/>
<path d="M60.9313 21.753L55.9396 4.28229C55.7228 3.52329 55.0291 3 54.2397 3H42.3135L43.714 19.807C43.76 20.357 44.0588 20.8538 44.5329 21.1364C45.68 21.8202 47.9274 23.0872 49.6801 23.6265C52.6733 24.5473 57.0491 24.2153 59.541 23.9088C60.5774 23.7815 61.2183 22.757 60.9313 21.753Z" stroke="black" stroke-width="4.41997"/>
<path d="M37.8933 23.6265C39.5655 23.112 41.6882 21.9348 42.8757 21.234C43.4412 20.9005 43.7524 20.2704 43.6979 19.6162L42.3132 3H21.6867L20.302 19.6162C20.2475 20.2704 20.5588 20.9005 21.1241 21.234C22.3116 21.9348 24.4345 23.112 26.1067 23.6265C30.506 24.9802 33.4939 24.9802 37.8933 23.6265Z" stroke="black" stroke-width="4.41997"/>
<path d="M8.06028 4.28229L3.06863 21.753C2.78178 22.757 3.42264 23.7815 4.45898 23.9088C6.95084 24.2153 11.3268 24.5473 14.3199 23.6265C16.0725 23.0872 18.32 21.8202 19.4671 21.1364C19.9411 20.8538 20.2401 20.357 20.286 19.807L21.6865 3H9.76023C8.97085 3 8.27712 3.52329 8.06028 4.28229Z" stroke="black" stroke-width="4.41997"/>
</svg>
