<svg width="101" height="101" viewBox="0 0 101 101" fill="none" xmlns="http://www.w3.org/2000/svg">
<rect x="0.0117188" y="0.250977" width="100" height="100" rx="50" fill="#FECC3B"/>
<path fill-rule="evenodd" clip-rule="evenodd" d="M65.0123 40.251C65.0123 48.5352 58.2966 55.251 50.0123 55.251C41.7281 55.251 35.0123 48.5352 35.0123 40.251C35.0123 31.9667 41.7281 25.251 50.0123 25.251C58.2966 25.251 65.0123 31.9667 65.0123 40.251ZM60.0123 40.251C60.0123 45.7738 55.5352 50.251 50.0123 50.251C44.4895 50.251 40.0123 45.7738 40.0123 40.251C40.0123 34.7281 44.4895 30.251 50.0123 30.251C55.5352 30.251 60.0123 34.7281 60.0123 40.251Z" fill="white"/>
<path d="M50.0123 62.751C33.8264 62.751 20.0355 72.322 14.7822 85.7311C16.062 87.0019 17.4101 88.2039 18.8205 89.3311C22.7324 77.0202 35.0041 67.751 50.0123 67.751C65.0206 67.751 77.2923 77.0202 81.2041 89.3312C82.6146 88.2039 83.9627 87.0019 85.2425 85.7311C79.9892 72.322 66.1983 62.751 50.0123 62.751Z" fill="white"/>
</svg>
